<svg width="17" height="16" viewBox="0 0 17 16" fill="none" xmlns="http://www.w3.org/2000/svg">
<path d="M7.86302 1.01074C6.37691 1.01074 4.92417 1.45018 3.68852 2.27347C2.45287 3.09677 1.48979 4.26695 0.921082 5.63605C0.352373 7.00514 0.203573 8.51165 0.493499 9.96507C0.783424 11.4185 1.49905 12.7535 2.54989 13.8014C3.60073 14.8493 4.93958 15.5629 6.39713 15.852C7.85468 16.1411 9.36548 15.9927 10.7385 15.4256C12.1114 14.8585 13.285 13.8982 14.1106 12.666C14.9362 11.4339 15.3769 9.98524 15.3769 8.50334H12.8267C12.8267 9.48228 12.5356 10.4392 11.9902 11.2532C11.4448 12.0672 10.6695 12.7016 9.76254 13.0762C8.85554 13.4508 7.85751 13.5488 6.89465 13.3579C5.93179 13.1669 5.04735 12.6955 4.35316 12.0032C3.65898 11.311 3.18623 10.4291 2.99471 9.46896C2.80318 8.50883 2.90148 7.51363 3.27717 6.6092C3.65286 5.70478 4.28907 4.93176 5.10534 4.38788C5.92162 3.84401 6.88129 3.55372 7.86302 3.55372L7.86302 1.01074Z" fill="#10EB00"/>
<path d="M13.0596 1.54492L14.852 3.33229L8.76074 9.4063C8.26577 9.89987 7.46326 9.89987 6.96829 9.4063V9.4063C6.47332 8.91273 6.47332 8.1125 6.96829 7.61893L13.0596 1.54492Z" fill="#10EB00"/>
<rect x="13.7607" y="1.01465" width="2.59199" height="5.71296" fill="#10EB00"/>
<rect x="16.3521" width="2.55006" height="6.85905" transform="rotate(90 16.3521 0)" fill="#10EB00"/>
</svg>
