<svg width="67" height="24" viewBox="0 0 67 24" fill="none" xmlns="http://www.w3.org/2000/svg">
<g clip-path="url(#clip0_4_422)">
<path d="M7.9673 -8.35498V6.6548C7.9673 8.43925 8.43035 9.78324 9.35646 10.6868C10.3052 11.5903 11.6153 12.0421 13.2868 12.0421C14.9809 12.0421 16.291 11.5903 17.2171 10.6868C18.1658 9.78324 18.6402 8.43925 18.6402 6.6548V-8.35498H22.5027V6.58703C22.5027 8.50702 22.0848 10.1334 21.2491 11.4661C20.4133 12.7988 19.2952 13.7926 17.8948 14.4477C16.4943 15.1027 14.947 15.4303 13.2529 15.4303C11.5588 15.4303 10.0115 15.1027 8.61106 14.4477C7.23318 13.7926 6.13766 12.7988 5.32449 11.4661C4.51132 10.1334 4.10474 8.50702 4.10474 6.58703V-8.35498H7.9673Z" fill="black"/>
<g clip-path="url(#clip1_4_422)">
<path d="M15.4526 13.1367L22.7711 24.8938H18.4342L13.1147 16.3555L8.13403 24.8938H3.831L11.1495 13.1367L3.79712 1.3457H8.13403L13.4874 9.95176L18.502 1.3457H22.805L15.4526 13.1367Z" fill="black"/>
</g>
</g>
<path d="M37.6524 23.9999L32.1273 14.4H29.123V23.9999H25.1863V0H33.474C35.3157 0 36.8697 0.322301 38.1359 0.966903C39.4251 1.61151 40.3805 2.47481 41.0021 3.55682C41.6467 4.63884 41.969 5.84746 41.969 7.18271C41.969 8.74817 41.5085 10.1755 40.5877 11.4647C39.6898 12.7309 38.297 13.5942 36.4093 14.0546L42.3488 23.9999H37.6524ZM29.123 11.2575H33.474C34.9474 11.2575 36.0524 10.8892 36.7891 10.1525C37.5488 9.4158 37.9287 8.42587 37.9287 7.18271C37.9287 5.93955 37.5603 4.97265 36.8237 4.282C36.087 3.56833 34.9704 3.2115 33.474 3.2115H29.123V11.2575Z" fill="black"/>
<path d="M54.1968 1.52637C51.9681 1.52637 49.7893 2.1854 47.9362 3.42013C46.083 4.65485 44.6387 6.40982 43.7858 8.4631C42.9329 10.5164 42.7097 12.7757 43.1445 14.9555C43.5793 17.1352 44.6526 19.1375 46.2285 20.709C47.8045 22.2805 49.8124 23.3507 51.9984 23.7843C54.1843 24.2178 56.4501 23.9953 58.5092 23.1448C60.5683 22.2943 62.3283 20.8541 63.5665 19.0062C64.8048 17.1583 65.4657 14.9857 65.4657 12.7633H61.641C61.641 14.2314 61.2044 15.6666 60.3865 16.8873C59.5685 18.1081 58.4059 19.0595 57.0456 19.6213C55.6854 20.1832 54.1886 20.3302 52.7445 20.0438C51.3005 19.7573 49.9741 19.0503 48.933 18.0122C47.8919 16.9741 47.1829 15.6514 46.8957 14.2115C46.6084 12.7715 46.7558 11.279 47.3193 9.92257C47.8827 8.56618 48.8369 7.40685 50.061 6.59118C51.2852 5.77552 52.7245 5.34016 54.1968 5.34016L54.1968 1.52637Z" fill="black"/>
<path d="M61.9885 2.31055L64.6767 4.99113L55.5414 14.1005C54.7991 14.8408 53.5956 14.8408 52.8532 14.1005V14.1005C52.1109 13.3603 52.1109 12.1602 52.8532 11.42L61.9885 2.31055Z" fill="black"/>
<rect x="63.0393" y="1.52783" width="3.8873" height="8.56792" fill="black"/>
<rect x="66.9255" width="3.82441" height="10.2868" transform="rotate(90 66.9255 0)" fill="black"/>
<defs>
<clipPath id="clip0_4_422">
<rect width="24.7057" height="23.9998" fill="white" transform="translate(0.575439)"/>
</clipPath>
<clipPath id="clip1_4_422">
<rect width="22.5881" height="14.1175" fill="white" transform="translate(2.69287 13.627)"/>
</clipPath>
</defs>
</svg>
