<svg width="142" height="20" viewBox="0 0 142 20" fill="none" xmlns="http://www.w3.org/2000/svg">
<path d="M9.38554 4.44824C8.15942 4.44825 6.9607 4.81099 5.9412 5.49023C4.92177 6.16947 4.12726 7.13516 3.658 8.26465C3.18876 9.39428 3.06624 10.6377 3.30546 11.8369C3.54469 13.036 4.13481 14.1374 5.00175 15.002C5.86879 15.8665 6.97393 16.4558 8.17656 16.6943C9.37903 16.9327 10.6259 16.8106 11.7586 16.3428C12.8913 15.8748 13.8596 15.082 14.5408 14.0654C15.222 13.0488 15.5857 11.8535 15.5857 10.6309H18.7703C18.7703 12.4817 18.2204 14.2912 17.1893 15.8301C16.1581 17.3689 14.692 18.568 12.9773 19.2764C11.2625 19.9847 9.37499 20.1707 7.55448 19.8096C5.7341 19.4485 4.06225 18.5567 2.7498 17.248C1.43729 15.9393 0.543558 14.2714 0.181438 12.4561C-0.180565 10.641 0.00449983 8.75961 0.714641 7.0498C1.42497 5.33979 2.62833 3.87792 4.17167 2.84961C5.71499 1.82133 7.52941 1.27247 9.38554 1.27246V4.44824ZM19.9891 8.41309H16.7518V5.53027L10.5066 11.7578C9.8884 12.3742 8.88655 12.3743 8.26835 11.7578C7.65024 11.1413 7.65016 10.1418 8.26835 9.52539L14.618 3.19434H11.4217V0.00976562H19.9891V8.41309Z" fill="black"/>
<path d="M32.5832 16.2087C31.8272 16.2087 31.1672 16.0407 30.6032 15.7047C30.0512 15.3687 29.6252 14.9007 29.3252 14.3007C29.0372 13.7007 28.8932 12.9987 28.8932 12.1947V6.20068H31.2512V11.9967C31.2512 12.4047 31.3292 12.7647 31.4852 13.0767C31.6532 13.3767 31.8872 13.6167 32.1872 13.7967C32.4992 13.9647 32.8472 14.0487 33.2312 14.0487C33.6152 14.0487 33.9572 13.9647 34.2572 13.7967C34.5572 13.6167 34.7912 13.3707 34.9592 13.0587C35.1272 12.7467 35.2112 12.3747 35.2112 11.9427V6.20068H37.5692V15.9927H35.3372V14.0667L35.5352 14.4087C35.3072 15.0087 34.9292 15.4587 34.4012 15.7587C33.8852 16.0587 33.2792 16.2087 32.5832 16.2087ZM38.8791 15.9927L42.2991 11.0787L38.8611 6.20068H41.6331L44.3151 10.1607H43.0731L45.7551 6.20068H48.5091L45.0891 11.0787L48.4911 15.9927H45.7371L43.0911 12.0507H44.2971L41.6511 15.9927H38.8791ZM49.9962 15.9927V2.58267H54.9822C55.8942 2.58267 56.6982 2.75067 57.3942 3.08668C58.1022 3.41068 58.6542 3.89067 59.0502 4.52668C59.4462 5.15068 59.6442 5.91268 59.6442 6.81267C59.6442 7.73668 59.4222 8.52268 58.9782 9.17068C58.5462 9.81868 57.9582 10.2987 57.2142 10.6107L60.2922 15.9927H57.5202L54.2262 10.1067L55.8102 11.0427H52.4442V15.9927H49.9962ZM52.4442 8.88268H55.0182C55.4622 8.88268 55.8462 8.79868 56.1702 8.63068C56.4942 8.45068 56.7462 8.20468 56.9262 7.89268C57.1062 7.58068 57.1962 7.22068 57.1962 6.81267C57.1962 6.39268 57.1062 6.03268 56.9262 5.73267C56.7462 5.42068 56.4942 5.18068 56.1702 5.01268C55.8462 4.83268 55.4622 4.74268 55.0182 4.74268H52.4442V8.88268ZM65.7977 16.2087C64.7897 16.2087 63.9077 15.9807 63.1517 15.5247C62.3957 15.0687 61.8077 14.4507 61.3877 13.6707C60.9677 12.8907 60.7577 12.0267 60.7577 11.0787C60.7577 10.0947 60.9677 9.22468 61.3877 8.46868C61.8197 7.70068 62.4017 7.09468 63.1337 6.65067C63.8777 6.20667 64.7057 5.98467 65.6177 5.98467C66.3857 5.98467 67.0577 6.11067 67.6337 6.36268C68.2217 6.61468 68.7197 6.96268 69.1277 7.40668C69.5357 7.85068 69.8477 8.36068 70.0637 8.93668C70.2797 9.50068 70.3877 10.1127 70.3877 10.7727C70.3877 10.9407 70.3757 11.1147 70.3517 11.2947C70.3397 11.4747 70.3097 11.6307 70.2617 11.7627H62.7017V9.96268H68.9297L67.8137 10.8087C67.9217 10.2567 67.8917 9.76468 67.7237 9.33268C67.5677 8.90068 67.3037 8.55868 66.9317 8.30668C66.5717 8.05468 66.1337 7.92868 65.6177 7.92868C65.1257 7.92868 64.6877 8.05468 64.3037 8.30668C63.9197 8.54668 63.6257 8.90668 63.4217 9.38668C63.2297 9.85468 63.1577 10.4247 63.2057 11.0967C63.1577 11.6967 63.2357 12.2307 63.4397 12.6987C63.6557 13.1547 63.9677 13.5087 64.3757 13.7607C64.7957 14.0127 65.2757 14.1387 65.8157 14.1387C66.3557 14.1387 66.8117 14.0247 67.1837 13.7967C67.5677 13.5687 67.8677 13.2627 68.0837 12.8787L69.9917 13.8147C69.7997 14.2827 69.4997 14.6967 69.0917 15.0567C68.6837 15.4167 68.1977 15.6987 67.6337 15.9027C67.0817 16.1067 66.4697 16.2087 65.7977 16.2087ZM73.3091 15.9927V8.30668H71.5811V6.20068H73.3091V5.87668C73.3091 5.13268 73.4591 4.50268 73.7591 3.98667C74.0711 3.45868 74.5031 3.05668 75.0551 2.78068C75.6071 2.50468 76.2611 2.36668 77.0171 2.36668C77.1611 2.36668 77.3171 2.37868 77.4851 2.40267C77.6651 2.41468 77.8151 2.43268 77.9351 2.45668V4.49067C77.8151 4.46668 77.7011 4.45468 77.5931 4.45468C77.4971 4.44268 77.4071 4.43668 77.3231 4.43668C76.7951 4.43668 76.3871 4.55668 76.0991 4.79668C75.8111 5.02468 75.6671 5.38468 75.6671 5.87668V6.20068H77.8451V8.30668H75.6671V15.9927H73.3091ZM83.8504 16.2087C82.8424 16.2087 81.9604 15.9807 81.2044 15.5247C80.4484 15.0687 79.8604 14.4507 79.4404 13.6707C79.0204 12.8907 78.8104 12.0267 78.8104 11.0787C78.8104 10.0947 79.0204 9.22468 79.4404 8.46868C79.8724 7.70068 80.4544 7.09468 81.1864 6.65067C81.9304 6.20667 82.7584 5.98467 83.6704 5.98467C84.4384 5.98467 85.1104 6.11067 85.6864 6.36268C86.2744 6.61468 86.7724 6.96268 87.1804 7.40668C87.5884 7.85068 87.9004 8.36068 88.1164 8.93668C88.3324 9.50068 88.4404 10.1127 88.4404 10.7727C88.4404 10.9407 88.4284 11.1147 88.4044 11.2947C88.3924 11.4747 88.3624 11.6307 88.3144 11.7627H80.7544V9.96268H86.9824L85.8664 10.8087C85.9744 10.2567 85.9444 9.76468 85.7764 9.33268C85.6204 8.90068 85.3564 8.55868 84.9844 8.30668C84.6244 8.05468 84.1864 7.92868 83.6704 7.92868C83.1784 7.92868 82.7404 8.05468 82.3564 8.30668C81.9724 8.54668 81.6784 8.90668 81.4744 9.38668C81.2824 9.85468 81.2104 10.4247 81.2584 11.0967C81.2104 11.6967 81.2884 12.2307 81.4924 12.6987C81.7084 13.1547 82.0204 13.5087 82.4284 13.7607C82.8484 14.0127 83.3284 14.1387 83.8684 14.1387C84.4084 14.1387 84.8644 14.0247 85.2364 13.7967C85.6204 13.5687 85.9204 13.2627 86.1364 12.8787L88.0444 13.8147C87.8524 14.2827 87.5524 14.6967 87.1444 15.0567C86.7364 15.4167 86.2504 15.6987 85.6864 15.9027C85.1344 16.1067 84.5224 16.2087 83.8504 16.2087ZM90.2279 15.9927V6.20068H92.4419V8.37868L92.2619 8.05468C92.4899 7.32268 92.8439 6.81268 93.3239 6.52468C93.8159 6.23668 94.4039 6.09268 95.0879 6.09268H95.6639V8.18068H94.8179C94.1459 8.18068 93.6059 8.39068 93.1979 8.81068C92.7899 9.21868 92.5859 9.79468 92.5859 10.5387V15.9927H90.2279ZM97.3556 15.9927V13.4727H99.7316V15.9927H97.3556ZM107.758 16.2087C106.786 16.2087 105.91 15.9867 105.13 15.5427C104.362 15.0867 103.756 14.4747 103.312 13.7067C102.868 12.9267 102.646 12.0507 102.646 11.0787C102.646 10.1067 102.868 9.23668 103.312 8.46868C103.756 7.70068 104.362 7.09468 105.13 6.65067C105.91 6.20667 106.786 5.98467 107.758 5.98467C108.454 5.98467 109.102 6.11067 109.702 6.36268C110.302 6.60268 110.818 6.93868 111.25 7.37068C111.694 7.79068 112.012 8.29468 112.204 8.88268L110.134 9.78268C109.954 9.29068 109.648 8.89468 109.216 8.59468C108.796 8.29468 108.31 8.14468 107.758 8.14468C107.242 8.14468 106.78 8.27068 106.372 8.52268C105.976 8.77468 105.664 9.12268 105.436 9.56668C105.208 10.0107 105.094 10.5207 105.094 11.0967C105.094 11.6727 105.208 12.1827 105.436 12.6267C105.664 13.0707 105.976 13.4187 106.372 13.6707C106.78 13.9227 107.242 14.0487 107.758 14.0487C108.322 14.0487 108.814 13.8987 109.234 13.5987C109.654 13.2987 109.954 12.8967 110.134 12.3927L112.204 13.3287C112.012 13.8807 111.7 14.3787 111.268 14.8227C110.836 15.2547 110.32 15.5967 109.72 15.8487C109.12 16.0887 108.466 16.2087 107.758 16.2087ZM118.782 16.2087C117.822 16.2087 116.946 15.9867 116.154 15.5427C115.374 15.0987 114.75 14.4927 114.282 13.7247C113.826 12.9567 113.598 12.0807 113.598 11.0967C113.598 10.1127 113.826 9.23668 114.282 8.46868C114.75 7.70068 115.374 7.09468 116.154 6.65067C116.934 6.20667 117.81 5.98467 118.782 5.98467C119.742 5.98467 120.612 6.20667 121.392 6.65067C122.172 7.09468 122.79 7.70068 123.246 8.46868C123.714 9.22468 123.948 10.1007 123.948 11.0967C123.948 12.0807 123.714 12.9567 123.246 13.7247C122.778 14.4927 122.154 15.0987 121.374 15.5427C120.594 15.9867 119.73 16.2087 118.782 16.2087ZM118.782 14.0487C119.31 14.0487 119.772 13.9227 120.168 13.6707C120.576 13.4187 120.894 13.0707 121.122 12.6267C121.362 12.1707 121.482 11.6607 121.482 11.0967C121.482 10.5207 121.362 10.0167 121.122 9.58468C120.894 9.14068 120.576 8.79268 120.168 8.54068C119.772 8.27668 119.31 8.14468 118.782 8.14468C118.242 8.14468 117.768 8.27668 117.36 8.54068C116.952 8.79268 116.628 9.14068 116.388 9.58468C116.16 10.0167 116.046 10.5207 116.046 11.0967C116.046 11.6607 116.16 12.1707 116.388 12.6267C116.628 13.0707 116.952 13.4187 117.36 13.6707C117.768 13.9227 118.242 14.0487 118.782 14.0487ZM125.736 15.9927V6.20068H127.95V8.46868L127.698 8.09068C127.878 7.38268 128.238 6.85468 128.778 6.50668C129.318 6.15868 129.954 5.98467 130.686 5.98467C131.49 5.98467 132.198 6.19467 132.81 6.61468C133.422 7.03468 133.818 7.58668 133.998 8.27068L133.332 8.32468C133.632 7.54468 134.082 6.96268 134.682 6.57868C135.282 6.18268 135.972 5.98467 136.752 5.98467C137.448 5.98467 138.066 6.14067 138.606 6.45268C139.158 6.76468 139.59 7.20268 139.902 7.76668C140.214 8.31868 140.37 8.96068 140.37 9.69268V15.9927H138.012V10.2507C138.012 9.81868 137.934 9.44668 137.778 9.13468C137.622 8.82268 137.406 8.58268 137.13 8.41468C136.854 8.23468 136.518 8.14468 136.122 8.14468C135.75 8.14468 135.42 8.23468 135.132 8.41468C134.844 8.58268 134.622 8.82268 134.466 9.13468C134.31 9.44668 134.232 9.81868 134.232 10.2507V15.9927H131.874V10.2507C131.874 9.81868 131.796 9.44668 131.64 9.13468C131.484 8.82268 131.262 8.58268 130.974 8.41468C130.698 8.23468 130.368 8.14468 129.984 8.14468C129.612 8.14468 129.282 8.23468 128.994 8.41468C128.706 8.58268 128.484 8.82268 128.328 9.13468C128.172 9.44668 128.094 9.81868 128.094 10.2507V15.9927H125.736Z" fill="black"/>
</svg>
